<?xml version="1.0" encoding="UTF-8"?>
<svg width="233" height="309" xmlns="http://www.w3.org/2000/svg">
 <!-- Created with SVG-edit - http://svg-edit.googlecode.com/ -->
 <title>map</title>

 <g>
  <title>Layer 1</title>
  <g id="svg_8">
   <g id="svg_5" transform="matrix(0.652905, 0, 0, 0.635955, 98.6204, -257.005)">
    <path fill="#000000" d="m27.536469,404.122162c-98.627991,0 -178.585022,79.955017 -178.585022,178.584991c0,42.255981 13.723999,77.289063 34.268005,113.638062c48.065002,85.04187 144.53302,193.713989 144.53302,193.713989c64.417023,-69.391113 147.02005,-206.307983 147.02005,-206.307983s31.350952,-63.531006 31.350952,-101.044067c-0.001953,-98.629974 -79.958008,-178.584991 -178.587006,-178.584991zm0,284.37796c-66.020996,0 -119.546021,-53.522949 -119.546021,-119.545898s53.525024,-119.546051 119.546021,-119.546051s119.54599,53.521973 119.54599,119.546051s-53.525024,119.545898 -119.54599,119.545898z" id="svg_6"/>
    <circle fill="#000000" cx="27.536476" cy="568.954158" r="72.106979" id="svg_7"/>
   </g>
  </g>
 </g>
</svg>