<?xml version="1.0" encoding="UTF-8"?>
<svg width="512" height="512" xmlns="http://www.w3.org/2000/svg" xmlns:xlink="http://www.w3.org/1999/xlink">
 <g>
  <title>Layer 1</title>
  <g id="#333333ff">
   <path stroke="#000000" id="svg_1" d="m223.070007,11.47c34.380005,-7.95 71.429993,-4.1 103.299988,11.099999c29.330017,13.779999 54.140015,36.880001 70.080017,65.080002c15.849976,28.049995 23.159973,61.159996 19.359985,93.230003c-3.75,27.709991 -16.419983,53.299988 -31.559998,76.47998c-13.480011,20.440002 -29.480011,39.02002 -45,57.900024c-26.48999,31.959991 -53.48999,63.5 -80.5,95.019989c-31.100006,-33.269989 -61.880005,-66.859985 -91.729996,-101.26001c-19.980011,-23.039978 -39.400002,-47.209991 -51.810005,-75.309982c-12.860001,-28.180008 -17.32,-60.040009 -13.049995,-90.690002c4.469994,-32.390007 19.539993,-63.130005 42.12999,-86.740005c21.170013,-22.139999 48.889999,-38.019999 78.780014,-44.809999m28.069992,79.820001c-23.279999,2.059998 -45.059998,15.540001 -57.630005,35.169998c-10.269989,15.610008 -14.360001,35.07 -11.580002,53.519997c2.740005,19.330002 13.26001,37.389999 28.600006,49.430008c12.320007,9.849991 27.740005,15.75 43.479996,16.639999c15.650009,0.98999 31.590012,-2.910004 44.970016,-11.080002c12.25,-7.419998 22.369995,-18.290009 28.889984,-31.040009c8.869995,-17.25 10.929993,-37.889999 5.559998,-56.539993c-5.329987,-19.210007 -18.48999,-36.059998 -35.75,-46c-13.919983,-8.190002 -30.47998,-11.690002 -46.539993,-10.099998z" fill="black"/>
   <path stroke="#000000" id="svg_2" d="m80.739998,378.769989c30,-8.440002 60.870003,-13.459991 91.840004,-16.690002c5.309998,5.230011 10.660004,10.420013 15.940002,15.680023c-20.540009,1.22998 -41.059998,2.97998 -61.430008,6c-16.75,2.609985 -33.549995,5.779999 -49.419998,11.880005c-7.139999,2.929993 -14.48,6.399994 -19.519997,12.449982c-3.260002,3.800018 -4.450001,9.339996 -2.540001,14.040009c2.82,7.130005 9.43,11.720001 15.720001,15.579987c13.339996,7.589996 28.129997,12.119995 42.900002,15.990021c24.699989,6.149994 49.959999,9.73999 75.279991,12.069977c51.050003,4.430023 102.569992,3.960022 153.490005,-1.839996c26.279999,-3.259979 52.579987,-7.699982 77.730011,-16.199982c10.559998,-3.700012 21.089996,-8.110016 30.009979,-15c5.130005,-4.040009 9.860016,-9.940002 9.279999,-16.860016c-0.629974,-6.019989 -5.379974,-10.5 -10.099976,-13.73999c-8.810028,-5.720001 -18.940002,-8.940002 -28.980011,-11.730011c-29.450012,-7.540009 -59.850006,-10.299988 -90.089996,-12.369995c5.269989,-5.160004 10.440002,-10.420013 15.759979,-15.519989c26.040009,2.940002 51.980011,7.089996 77.390015,13.549988c19.049988,5.01001 38.029999,11.029999 55.380005,20.519989c9.639984,5.490021 19.429993,12.120026 24.829987,22.130005c3.970001,7.210022 3.27002,16.390015 -1.339996,23.140015c-6.820007,10.299988 -17.75,16.929993 -28.51001,22.48999c-18.98999,9.339996 -39.419983,15.320007 -59.949982,20.200012c-47.660004,10.779999 -96.589996,15.059998 -145.380005,15.779999c-52.089996,0.589996 -104.410004,-2.830017 -155.580002,-12.950012c-24.939995,-5.220001 -49.899998,-11.690002 -72.869995,-22.959991c-9.410002,-4.779999 -18.660002,-10.410004 -25.650002,-18.429993c-5.02,-5.779999 -8.34,-13.690002 -6.51,-21.390015c2.36,-9.929993 10.41,-17.139984 18.459999,-22.76001c16.320002,-11 35.129999,-17.47998 53.859999,-23.059998z" fill="black"/>
  </g>
  <image xlink:href="images/logo.png" id="svg_3" height="48" width="48" y="708" x="665"/>
 </g>
</svg>