<?xml version="1.0" standalone="no"?>
<!DOCTYPE svg PUBLIC "-//W3C//DTD SVG 20010904//EN"
 "http://www.w3.org/TR/2001/REC-SVG-20010904/DTD/svg10.dtd">
<svg version="1.0" xmlns="http://www.w3.org/2000/svg"
 width="771.000000pt" height="701.000000pt" viewBox="0 0 771.000000 701.000000"
 preserveAspectRatio="xMidYMid meet">
<metadata>
Created by potrace 1.13, written by Peter Selinger 2001-2015
</metadata>
<g transform="translate(0.000000,701.000000) scale(0.100000,-0.100000)"
fill="#000000" stroke="none">
<path d="M3610 7003 c-98 -12 -288 -56 -381 -88 -644 -223 -1105 -765 -1224
-1440 -22 -124 -30 -377 -16 -504 23 -210 80 -418 165 -596 23 -49 259 -453
524 -896 265 -444 482 -810 482 -813 0 -3 -513 -6 -1139 -6 l-1139 0 -6 -26
c-4 -14 -146 -544 -317 -1177 -177 -658 -308 -1161 -305 -1173 4 -13 19 -27
37 -33 49 -17 7105 -15 7139 2 17 8 26 22 27 42 2 17 -141 554 -316 1195
l-318 1165 -1160 5 -1160 5 485 810 c266 446 502 847 523 892 161 343 214 739
150 1114 -130 752 -711 1347 -1466 1500 -91 18 -149 22 -330 24 -121 2 -236 1
-255 -2z m477 -977 c157 -43 260 -103 387 -225 215 -208 310 -474 277 -775
-24 -215 -106 -381 -266 -541 -116 -116 -214 -179 -350 -224 -168 -56 -352
-63 -532 -21 -161 38 -306 124 -434 256 -89 93 -127 148 -174 247 -63 133 -79
211 -79 397 0 150 3 173 27 253 106 346 382 593 734 657 26 5 109 7 183 5 105
-3 155 -9 227 -29z m-1797 -3430 c797 -4 896 -6 906 -20 6 -9 18 -16 26 -16 9
0 132 -196 307 -490 161 -269 296 -490 300 -490 4 0 132 212 285 470 153 259
282 470 287 470 4 0 11 9 14 20 3 11 13 20 20 20 8 0 18 6 22 14 7 12 179 15
1147 18 l1139 3 73 -280 c74 -278 143 -536 394 -1462 71 -265 130 -486 130
-492 0 -11 -6944 -17 -6972 -6 -11 5 48 244 281 1129 l295 1124 225 -4 c124
-2 629 -6 1121 -8z"/>
</g>
</svg>
