<?xml version="1.0" encoding="UTF-8"?>
<svg width="240" height="240" xmlns="http://www.w3.org/2000/svg">
 <!-- Created with SVG-edit - http://svg-edit.googlecode.com/ -->

 <title>map</title>
 <g>
  <title>Layer 1</title>
  <g id="svg_8">
   <g id="svg_5" transform="matrix(0.524115, 0, 0, 0.489844, 79.1669, -140.958)">
    <path fill="#000000" d="m79.051849,289.800079c-98.627996,0 -178.585037,79.955017 -178.585037,178.584961c0,42.255981 13.723999,77.289093 34.268013,113.638092c48.064987,85.04187 144.53302,193.713989 144.53302,193.713989c64.417,-69.391113 147.020027,-206.307983 147.020027,-206.307983s31.350952,-63.531036 31.350952,-101.044098c-0.001953,-98.629944 -79.958008,-178.584961 -178.58699,-178.584961l0.000015,0zm0,284.37796c-66.021008,0 -119.546028,-53.522949 -119.546028,-119.545929s53.525021,-119.546021 119.546028,-119.546021s119.545975,53.521973 119.545975,119.546021s-53.525024,119.545929 -119.545975,119.545929z" id="svg_6"/>
    <circle fill="#000000" cx="79.05185" cy="454.632064" r="72.106964" id="svg_7"/>
   </g>
  </g>
 </g>
</svg>