<?xml version="1.0" encoding="UTF-8"?>
<svg width="233" height="309" xmlns="http://www.w3.org/2000/svg">
 <!-- Created with SVG-edit - http://svg-edit.googlecode.com/ -->

 <title>map</title>
 <g>
  <title>Layer 1</title>
  <g id="svg_8">
   <g transform="matrix(0.524115, 0, 0, 0.489844, 79.1669, -140.958)" id="svg_5">
    <path id="svg_6" d="m71.419937,361.251404c-98.627998,0 -178.58503,79.955017 -178.58503,178.584961c0,42.255981 13.723999,77.289063 34.268005,113.638062c48.064995,85.04187 144.53302,193.713989 144.53302,193.713989c64.417015,-69.391113 147.020042,-206.307983 147.020042,-206.307983s31.350952,-63.531006 31.350952,-101.044067c-0.001953,-98.629944 -79.958008,-178.584961 -178.58699,-178.584961zm0,284.37793c-66.021007,0 -119.546028,-53.522949 -119.546028,-119.545898s53.525022,-119.546021 119.546028,-119.546021s119.545975,53.521973 119.545975,119.546021s-53.525024,119.545898 -119.545975,119.545898z" fill="#000000"/>
    <circle id="svg_7" r="72.106979" cy="526.083381" cx="71.419938" fill="#000000"/>
   </g>
  </g>
 </g>
</svg>