<?xml version="1.0" encoding="UTF-8" standalone="no"?>
<svg width="124px" height="126px" viewBox="0 0 124 126" version="1.1" xmlns="http://www.w3.org/2000/svg" xmlns:xlink="http://www.w3.org/1999/xlink">
    <!-- Generator: Sketch 3.7.2 (28276) - http://www.bohemiancoding.com/sketch -->
    <title>load Mapillary data</title>
    <desc></desc>
    <defs></defs>
    <g id="Page-1" stroke="none" stroke-width="1" fill="none" fill-rule="evenodd">
        <g id="Mapillary-brand" transform="translate(-2266.000000, -907.000000)" fill="#FFFFFF">
            <g id="mapillary-arrow-white" transform="translate(2266.000000, 907.000000)">
                <path d="M59.4779436,92.9150573 C61.7113304,94.0924269 115.866504,123.668694 117.575803,124.619895 C120.991861,126.520884 124.606849,122.842924 122.747969,119.404435 C121.811643,117.672451 92.4791998,61.8850432 91.4885502,60.1763646 C90.4979007,58.467686 88.0611429,57.6058705 86.2303179,58.7524892 C84.4368535,59.8757096 82.3698649,61.1405108 81.2144817,61.7464295 C78.8796469,62.9708891 78.5933061,64.8109638 79.640741,66.856795 C81.942825,71.3531847 89.1882585,84.9949672 90.017625,86.4245603 C91.7542861,89.4180721 87.8826375,92.8349013 85.2573142,91.342576 C84.1454455,90.7105511 66.9527634,81.37763 65.7379361,80.6465157 C64.5231087,79.9154015 62.3709438,79.9228125 60.8943532,82.3884221 C59.8206221,84.1813375 58.5031416,86.4059588 57.895387,87.5212872 C56.70039,89.7143005 57.2445567,91.7376878 59.4779436,92.9150573 L59.4779436,92.9150573 Z" id="Path-24"></path>
                <path d="M2.30509104,61.7179887 C-0.577881656,60.1045072 -0.0505854295,55.912182 3.58736582,54.8429325 C6.66963144,53.9370075 31.6995448,45.2775216 39.2741119,42.6532398 C40.6396912,42.1801216 41.7057855,41.0921033 42.1645401,39.7030253 C44.7444228,31.8913134 53.3614867,5.79942181 54.3275039,2.87438298 C55.4652983,-0.570785998 59.5842909,-0.583424471 61.2630721,2.75181461 C61.8593571,3.93645552 84.5234485,46.3322931 85.3119838,48.1307099 C86.1005192,49.9291267 85.5924916,51.9212107 83.8053349,53.0702424 C82.0181781,54.2192742 79.1037098,55.9379112 78.0882929,56.589008 C76.2499622,57.7677664 74.487963,56.9470881 73.6487262,55.1212153 C72.8094894,53.2953424 66.3439388,41.514374 63.7074715,36.5128613 C62.3896472,34.0128817 58.4195641,33.0535014 57.0851295,37.0940803 C56.119956,40.0165613 53.8703496,46.8282191 52.6992455,50.3742442 C52.2511984,51.7309008 51.1155441,52.8985981 49.7888584,53.3521451 C46.4964744,54.4776949 40.2404504,56.6164084 36.5878965,57.8650875 C33.9813937,58.7561587 32.7144459,62.8766176 36.2335975,64.6117617 C36.9686991,64.9742091 52.8132505,73.7490145 54.448034,74.5515905 C56.0828174,75.3541666 56.9918571,77.6709557 56.0345702,79.3122734 C54.7288378,81.5510188 53.0572109,84.39231 52.4508184,85.3147513 C51.3998541,86.9134727 49.3353667,87.4459005 47.6015079,86.5022963 C45.867649,85.5586921 3.33522984,62.2945152 2.30509104,61.7179887 Z" id="Path-2"></path>
            </g>
        </g>
    </g>
</svg>
