<?xml version="1.0" encoding="UTF-8" standalone="no"?>
<!-- Created with Inkscape (http://www.inkscape.org/) -->

<svg
   xmlns:dc="http://purl.org/dc/elements/1.1/"
   xmlns:cc="http://creativecommons.org/ns#"
   xmlns:rdf="http://www.w3.org/1999/02/22-rdf-syntax-ns#"
   xmlns:svg="http://www.w3.org/2000/svg"
   xmlns="http://www.w3.org/2000/svg"
   xmlns:sodipodi="http://sodipodi.sourceforge.net/DTD/sodipodi-0.dtd"
   xmlns:inkscape="http://www.inkscape.org/namespaces/inkscape"
   width="36.54039"
   height="50.000004"
   viewBox="0 0 36.540389 50.000005"
   id="svg3713"
   version="1.1"
   inkscape:version="0.91 r13725"
   sodipodi:docname="dessin.svg">
  <defs
     id="defs3715" />
  <sodipodi:namedview
     id="base"
     pagecolor="#ffffff"
     bordercolor="#666666"
     borderopacity="1.0"
     inkscape:pageopacity="0.0"
     inkscape:pageshadow="2"
     inkscape:zoom="7.9195959"
     inkscape:cx="16.334218"
     inkscape:cy="29.142871"
     inkscape:document-units="px"
     inkscape:current-layer="layer1"
     showgrid="false"
     fit-margin-top="0"
     fit-margin-left="0"
     fit-margin-right="0"
     fit-margin-bottom="0"
     inkscape:window-width="1366"
     inkscape:window-height="720"
     inkscape:window-x="0"
     inkscape:window-y="24"
     inkscape:window-maximized="1"
     units="px"
     showguides="false" />
  <metadata
     id="metadata3718">
    <rdf:RDF>
      <cc:Work
         rdf:about="">
        <dc:format>image/svg+xml</dc:format>
        <dc:type
           rdf:resource="http://purl.org/dc/dcmitype/StillImage" />
        <dc:title></dc:title>
      </cc:Work>
    </rdf:RDF>
  </metadata>
  <g
     inkscape:label="Calque 1"
     inkscape:groupmode="layer"
     id="layer1"
     style="display:inline"
     transform="translate(-465.91114,-580.25931)">
    <path
       style="fill:#0aa9fb;fill-opacity:1"
       d="m 482.6753,628.50301 c -8.94237,-10.5533 -14.40802,-18.8248 -16.01356,-24.23432 -0.6438,-2.16915 -0.75331,-2.99674 -0.75055,-5.67209 0.002,-2.13489 0.0296,-2.55754 0.22468,-3.47249 0.53413,-2.50467 1.70246,-5.22173 3.07063,-7.14106 1.31208,-1.84064 3.49818,-3.87904 5.43247,-5.06542 5.23519,-3.21096 11.91865,-3.53627 17.453,-0.84951 6.43429,3.12365 10.59246,9.84413 10.34945,16.72691 -0.0711,2.01469 -0.55086,3.87857 -1.82415,7.08736 -0.98235,2.47561 -1.25474,3.00974 -2.7611,5.41442 -4.67125,7.45691 -10.05053,14.96848 -13.16631,18.3853 l -0.52635,0.5772 -1.48821,-1.7563 z m 3.48924,-19.09447 c 1.79271,-0.28871 3.932,-1.20629 5.39319,-2.31324 2.44857,-1.85496 4.05273,-4.4119 4.72385,-7.52956 0.24522,-1.13916 0.24578,-3.57909 10e-4,-4.73927 -0.76343,-3.6197 -2.91129,-6.59565 -6.06711,-8.40621 -4.44439,-2.54985 -10.26356,-1.96828 -14.11207,1.41036 -2.91266,2.55705 -4.40973,6.00859 -4.26083,9.82345 0.0766,1.96255 0.47059,3.51237 1.31216,5.16165 1.92305,3.76877 5.72353,6.33508 9.96694,6.73031 0.61747,0.0575 2.30557,-0.0188 3.04277,-0.13749 z"
       id="path3745"
       inkscape:connector-curvature="0" />
    <path
       style="fill:#00ffff"
       d="m 483.0371,609.63862 c -4.31243,-0.38408 -8.21093,-2.99555 -10.17636,-6.8168 -2.06996,-4.02451 -1.74795,-8.75769 0.85673,-12.59263 0.64918,-0.95582 2.2306,-2.51516 3.22517,-3.18015 3.80148,-2.54176 8.52867,-2.93294 12.57231,-1.04038 1.41984,0.66453 2.45889,1.38333 3.55974,2.46256 5.87237,5.757 4.63496,15.29604 -2.52942,19.49897 -2.15677,1.26526 -4.98313,1.89331 -7.50817,1.66843 z m 2.97965,-5.0496 c 0.44561,-0.10969 1.20199,-0.39049 1.68084,-0.62398 0.70736,-0.34492 1.05396,-0.60412 1.84813,-1.38211 1.61681,-1.58387 2.27282,-3.12102 2.27282,-5.32567 0,-1.39052 -0.22933,-2.34615 -0.83827,-3.49315 -0.79429,-1.49614 -1.89187,-2.54619 -3.43632,-3.28753 -1.18593,-0.56924 -2.04538,-0.75995 -3.41593,-0.75799 -1.79461,0.003 -3.24032,0.4842 -4.71449,1.57058 -2.20386,1.62413 -3.36461,4.60488 -2.83874,7.28977 0.58682,2.99613 2.71279,5.23618 5.69621,6.00186 1.05605,0.27103 2.66383,0.27456 3.74575,0.008 l 0,0 z"
       id="path3749"
       inkscape:connector-curvature="0" />
    <path
       style="fill:#0aa9fb;fill-opacity:1"
       d="m 482.63409,607.53295 c -1.46171,-0.15534 -3.23795,-0.81027 -4.64858,-1.71401 -0.79879,-0.51178 -2.27868,-1.93768 -2.81254,-2.70997 -0.59954,-0.8673 -1.1646,-1.97681 -1.47113,-2.88866 -0.53348,-1.58699 -0.50975,-4.59313 0.0485,-6.15309 1.37898,-3.85278 4.88726,-6.66411 8.92221,-7.14972 3.38857,-0.40779 6.4702,0.54094 8.88792,2.7363 2.53915,2.30562 3.72827,5.38309 3.37219,8.72717 -0.42251,3.96779 -3.43249,7.51717 -7.41477,8.74349 -1.32521,0.40808 -3.3188,0.57484 -4.88388,0.40849 z"
       id="path3758"
       inkscape:connector-curvature="0" />
  </g>
</svg>
